<svg id="Layer_1" data-name="Layer 1" xmlns="http://www.w3.org/2000/svg" viewBox="0 0 3450.5 2366.4"><defs><style>.cls-1{fill:#f8c200;}.cls-2{fill:#31393d;}.cls-3{fill:#f4bf00;}.cls-4{fill:#2f3436;}.cls-5{fill:#fac300;}.cls-6{fill:#2f3435;}.cls-7{fill:#f7c100;}.cls-8{fill:#2c2204;}.cls-9{fill:#261d04;}.cls-10{fill:#c7a101;}.cls-11{fill:#110e05;}.cls-12{fill:#463703;}.cls-13{fill:#060505;}.cls-14{fill:#eb0;}</style></defs><path class="cls-1" d="M-439.81-165.8H-329c.4-10.21,6.82-11.49,15.79-11.15,18.27.68,36.57.2,54.86.2-.38,1.48-.77,2.95-1.15,4.42,5.51,2.33,10.86,6.07,16.55,6.67,9.75,1,19.7.1,29.56,0l3.37-2.11v-87h65.87c-.17,4.58-.48,9.16-.48,13.75q0,201.75-.18,403.49c0,10.18,3.69,12.81,13.3,12.64,28.79-.51,57.62-.94,86.38.14,13.49.51,16.42-4,16.37-16.72C-29.18,28.77-29-101-29-230.79c0-8-.56-15.94-.86-23.91,29.71.28,59.41.74,89.12.81,54.75.13,109.51,0,164.26,0h15.77V185.91H-13.59c.76-4.13,2.19-8.26,2.19-12.39q.21-109.43,0-218.86c0-3.59-1.34-7.18-2.06-10.77l-4.52.11c-.68,4.13-1.95,8.27-1.95,12.4q-.18,108-.12,216c0,4.51-.56,9-.86,13.54H-153.69l-3.34-3c1-3,2.91-5.92,2.91-8.88q.26-110.34,0-220.67c0-3-1.58-6.09-2.43-9.13l-4.11.3c-.49,4.32-1.39,8.63-1.4,12.95q-.12,106.1.07,212.18c0,4.41,1.8,8.82,2.77,13.23l-3.32,3L-450,185.53h-24.15c-.24-5.41-.64-10.37-.64-15.32q-.08-71.49,0-143c0-10.67.27-23.81-11.36-26.36-13.08-2.85-27.74-1.49-41,1.3-4.19.88-8.72,12.23-8.79,18.83-.65,65.59-.47,131.19-.2,196.79,0,3.43,2.88,6.93,4.7,10.25a83.77,83.77,0,0,0,4.75,7c-2.61,1.32-5.21,3.76-7.85,3.8-20.77.32-41.54.24-62.32.16-8.91,0-18.52.1-18.4,12s9.71,11.92,18.62,11.89c20.3-.09,40.61-.33,60.89.26,3.51.1,6.9,4,10.35,6.13l-2,4.92h-60.42c-3.78,0-7.55,0-11.33,0-8.67-.08-15.51,3.08-15.32,12.59.2,9.72,7.71,11.85,16,11.84q28.32,0,56.65,0h15.28c0,7.25-.06,13.25,0,19.25.1,8.43,2.92,16.6,12.46,14.54,4.66-1,10.44-9,11-14.38,1.52-14.43.52-29.12.52-44.57H1095.64c0,7.51.09,14.86,0,22.22-.13,8.64-.89,19.44,10.34,19.59,5.82.08,11.76-8.08,17.65-12.52l-2.22-4.13q33.87,0,67.76,0c9,0,18.47-.58,18.39-12.25-.08-11.5-9.36-12.29-18.46-12.24-22.59.13-45.18,0-67.78,0-3.64-9.21-.16-11.55,8-11.44,20.29.3,40.6,0,60.9.14,8.59.06,17.35-.69,17.73-11.37.42-11.84-8.75-12.5-17.92-12.41-19.82.19-39.66.25-59.48-.12-3.59-.07-7.14-2.46-10.71-3.77,2-2.47,4.48-4.71,6-7.46,1.67-3,3.53-6.53,3.53-9.83q.3-98.4,0-196.8c0-15.34-7.09-22.37-22.2-23.69a108.27,108.27,0,0,0-12.74-.16c-19.44.61-26.37,7.4-26.44,26.94-.17,48.14-.06,96.28-.06,144.41v16.21H263.79V171.5c0-58.52-.21-117,.32-175.55.06-6.08,4.63-12.08,6.9-18.19,2.39-6.43,6.16-12.88,6.46-19.46.87-19.29.31-38.65.31-59H460.86V164.56l5.13.6c.8-5.17,2.29-10.34,2.3-15.52q.22-117.51.1-235v-15.54h225V165l5.35.87c.79-5,2.25-10,2.26-15.05q.22-117.51.11-235v-16.5H926V165.06l6.16.29c3-16.74,1-34,1.36-51,.37-17.92.08-35.86.08-53.79V-102.6h176.87l.57-3.8c-2.57-1-5.08-2.7-7.73-3-4.66-.5-9.42-.19-14.14-.19H294.6c-3.31,0-6.62-.14-9.92,0-20.88,1.1-20.92,1.13-20.87-20.43,0-10.37.22-20.74.44-31.11,0-.84.78-1.66,1.83-3.73h14.64q240.77-.26,481.54-.64c6.53,0,16.12,4,16.56-8.88,0-.89,5.59-2.29,8.59-2.3,47.21-.14,94.42-.3,141.63.22,4.21,0,8.37,4.72,12.56,7.25l-1.36,3.83h155.65c20.77,0,41.55-.24,62.32.09,18,.28,25.91,9.14,27.54,27.19.75,8.34,3.74,16.76,7.14,24.52,5.57,12.69,5.23,24.33-1.62,36.45-3,5.34-5.46,11.86-5.53,17.87q-.72,60.17,0,120.33c.09,6.46,4.5,12.74,5.5,19.31,1.64,10.75,5.49,22.75,2.42,32.3-7.84,24.4-9.91,29.44-7.21,59.28h42V157.07c0-38.23-.14-76.45,0-114.68.14-30.86,14.18-44.82,45.13-45.26,11.25-.16,22.49,0,35.42,0-2.25,4.89-2.7,6.45-3,6.42-18.86-1.85-21.12,12.21-24.62,25.32-7.51,28.24-16.78,56.12-22.34,84.72-4.44,22.83-4.45,46.53-6.3,68.39,16.73,10,42.37-9.33,46.92,20.81h26.68c.55-2.72.19-6.3,1.77-7.72,3.82-3.44,8.93-8.53,12.8-8s9.13,6.77,9.88,11.16c1.55,9.18.48,18.8.58,28.24.09,8.23.49,17.28-10.19,18.84-11.72,1.7-13.37-7.65-14.82-17.12h-26.26c-3.74,27.09-26.33,13.49-42.32,18.1v33.12c22.86,2.29,55.17-7.19,52.42,36.59,9.41,0,18.12-.24,26.82.05,15.16.51,24.69,9.45,25.08,23.12s-8.8,24.21-23.51,24.82c-17.44.72-35,.67-52.39,0-15-.57-22.82-9.14-24.2-24.24-.29-3.12-.71-6.24-1.27-11.08-6.09,15.2-12.57,28.29-16.41,42.12-2.26,8.17-2.24,16.77-13.09,16.41-9.79-.32-11.81-7.74-11.49-16.15.06-1.79-.41-3.59-.82-6.81h-89.14c-11.81,0-23.61-.12-35.41,0-13.08.15-22.75-4.54-27.82-17.43-1.11-2.81-4.71-6.56-7.21-6.59-31-.45-62-.3-94.35-.3,0,9.93,0,18.33,0,26.73,0,3.76.38,7.72-.62,11.25-3.35,11.85-23.05,17.93-46.56,14.77-16.8-2.27-23.54-8.94-23.95-23.77-.08-2.81,0-5.63,0-10.81H841.2c-.49,5.82-.92,10.81-1.33,15.63-1,.65-1.88,1.67-2.54,1.55-23-4.11-39.53,3.62-48.81,25.84-1.73,4.13-5.85,7.33-9.09,10.76s-6.72,6.56-13.71,13.31h598.43c-11.83,9.52-2121,10.22-2132.11,1.13H-138.4c-16.25-26-24.81-32.22-45.58-33.91-.46-4.83-.94-9.84-1.61-16.77h-34.9V340.81H-371.73v24.25c-24.45,4.14-24.53-.17-28.62,27.44a42.78,42.78,0,0,1-5.31.67c-8.94.07-17.88,0-28.39,0V355.77c-20.19,2.62-38.43,5.05-56.69,7.31a131.44,131.44,0,0,1-15.47,1.11c-39.61.09-79.22.05-119.84.05-.62,5.08.07,10.28-2,13.82-2.33,3.91-6.94,8.14-11.09,8.78-3.29.5-9.55-3.43-10.74-6.75-5.85-16.24-10.44-32.93-17.51-50.2-.53,3.44-1.22,6.87-1.58,10.33-1.58,15-9.54,23.27-24.69,23.81-17,.6-34,.6-51,0-15-.52-24.4-10.29-24.46-23.94-.07-14.24,9.75-23.6,25.59-24.07,8.38-.25,16.77-.05,26.17-.05-2.86-42.52,28-35.29,53-36.43V247.05c-14.67-6.86-38.56,9.45-42.31-19.19h-26.46c-.51,2.59-.21,5.48-1.51,6.83-3.83,4-8.3,7.37-12.51,11-3.71-4.64-9.55-8.84-10.63-14-1.79-8.6-.4-17.84-.56-26.8-.15-8.43.25-18.22,10.72-17.86,5.68.19,11.1,7.78,16.64,12l-2.17,3.5h26.26c4.23-29.34,28.89-11.75,44.64-18.68,3.57-31.12.19-62.18-8.35-92.77-6.59-23.61-13.83-47-20.28-70.68-2.7-9.91-5.94-17.84-18.59-15.33-1.35.27-3.1-1.41-4.46-2.09a28.22,28.22,0,0,1,.53-3.2c19.76.82,40.38-1.4,59,3.67,15.71,4.27,19.05,21.9,19.06,37.85q0,58.05,0,116.1v14.76h43.12c-2.8-19.83,5-39.39-7.7-58.81-4.78-7.3-.22-21.24,1.27-32,1-7.47,5.85-14.63,6-22,.67-34,.37-67.95.26-101.92-.05-13.84.43-26.92-7.63-40.38-4.59-7.68-.08-21.26,1.46-32,1.07-7.47,5.46-14.57,5.94-22,1.29-19.71,9.18-28.08,29.2-28.38,15.1-.23,30.2-.23,45.29-.36a6.17,6.17,0,0,0,1.39-.3l-1.26-3.8c5.57-2.33,11.07-6.4,16.73-6.65,18.84-.85,37.73-.32,56.6-.31Zm545-73v142c25.35,0,49.81.23,74.26-.07,22.59-.27,35.47-11.68,36.47-34.38,1.1-24.93.93-50,0-74.91-.73-19.58-12.89-31.78-32.4-32.46C157.65-239.5,131.76-238.83,105.14-238.83ZM95.57-239c-25.8,0-50.24-.22-74.66.06-22.31.25-35.39,12.55-36,34.74-.63,24.46-.48,48.95,0,73.42.33,18.64,11.53,32.19,29.92,33.13,26.63,1.36,53.38.35,80.75.35ZM289.44,424.42c-9.81-12.21-18.51-23.71-28-34.47a17.56,17.56,0,0,0-11.73-5.23q-94.68-.5-189.36-.08c-3.81,0-9,1-11.19,3.6-10,11.46-19.1,23.65-29,36.18ZM449.32,424h159.4c-10.68-14.84-21.06-29.66-32-44-1.84-2.41-6.05-3.84-9.33-4.2-16.81-1.87-21-6.12-21.24-23.17-.13-8,0-16,0-25.47-27,10.46-13.2,32.57-19.5,48.49-11.78,0-23.52-.49-35.17.27a17.11,17.11,0,0,0-11,5.9C469.84,395.38,459.92,409.51,449.32,424ZM-517.92-101.91h223.47V165.4l6.72.21c.57-21.48.21-43,.27-64.53.06-22.62,0-45.25,0-67.87V-103.37h88.24C-210.47-112-508.95-111.51-517.92-101.91ZM-686.75,6.46c15.87,56.06,37.13,110,36.34,169.29,4.11-4.3,6.72-9,6.76-13.74q.49-60.09.13-120.2C-643.67,14.18-656.63,3.29-686.75,6.46Zm1966.56,0c-28.3-3.09-42.65,7.16-43,31-.58,42.41-.32,84.83,0,127.25,0,3.84,3,7.67,4.55,11.5l4.79-.93C1242.68,116.4,1264.07,62.57,1279.81,6.48ZM7.72,132.13l-.63,5c3.61.91,7.22,2.6,10.83,2.61q87.51.25,175,0c3.41,0,6.81-2.17,10.22-3.33-.27-1.42-.53-2.85-.79-4.28ZM202.1-49.64c-11.19-9.69-186.23-8.86-196.67,0ZM7.82,170.71c10.59,6.61,186.35,6,194.14-.69C190.5,164.29,16.72,164.9,7.82,170.71Z" transform="translate(1428.75 763.4)"/><path class="cls-2" d="M1056.92-500.51H-503.43c39.39-55,96.58-64.13,156.78-70.09,0-5.15.51-9.74-.08-14.18-11.1-83.47,43.19-132.32,98.34-155C-183.26-766.64-115.53-767.5-47-757.6c42.52,6.15,80.75,21.53,111.32,53C91-677,104-643.2,109.39-606.1c2.78,19.22,1.94,19.35,21,19.36,87.79,0,175.59-.26,263.38.2,48.55.25,97.11,1.06,145.62,2.85,55,2,110.12,3.56,164.88,8.66,82.72,7.7,165.27,17.45,247.67,28.08,36.73,4.74,70.78,19.1,101.82,39.81a53.62,53.62,0,0,0,5,2.67Z" transform="translate(1428.75 763.4)"/><path class="cls-2" d="M-88.57,1338.79q104.7,0,209.42,0c17.27,0,16.68,0,14.92,17.5-1.79,17.75-3,35.62-3.21,53.46C131.28,1499.84,70.45,1577.55-20,1594.5c-79.73,14.94-157.87,13.57-228.84-31.91-50.52-32.37-75.8-80-74.59-140.34.5-24.84,3.65-49.62,5.4-74.44.7-9.92,7.74-9,14.36-9q53.78,0,107.55,0Z" transform="translate(1428.75 763.4)"/><path class="cls-3" d="M1095.11,210.08V264H-42.23V216.11h-88.61v47.71H-501.6V210.08Z" transform="translate(1428.75 763.4)"/><path class="cls-4" d="M491.84,712.85c25,5.69,32.28,13.24,34,31.54,1.64,17.1-5.28,27.33-23.28,37-2.89,1.54-4.87,7.39-4.91,11.27-.3,27.84.1,55.68.11,83.53,0,21.52-12.22,33.9-34,34.75s-38.65-13.1-39.57-33.55q-1.92-42.32-2.78-84.68c-.17-7.71-1.23-12.13-10.68-12.23q-52.28-.57-104.54-2.62c-11.88-.48-15.19,3.86-15.61,15.43-1.12,30-3.36,60.07-5.89,90-1.51,17.82-8.23,25.31-25.6,29.06-16.35,3.53-32.26,2.14-44.19-11.34-2.71-3-3.65-8.74-3.44-13.12,1.47-29.57,3.37-59.11,5.34-88.65.72-10.83,2.8-20.78-12.26-25.21-12.21-3.6-18.48-21.36-15.18-37.46,2.72-13.27,8.79-23.7,24.87-24.37,3.15-.13,8.24-4.59,8.77-7.67,2.46-14.31,4-28.8,5.17-43.28q3.34-41.46,5.88-83c1.31-21.08,16.43-35,38.52-34.89,23,.13,36.26,12.87,35,36.49-2,38.46-5,76.89-8.6,115.24-1.4,14.82,3.68,18.47,17.88,17.94,27.82-1,55.7-.19,83.56-.14,18.05,0,18.31,0,17.92-18.71-.8-38.14-2.14-76.27-2.79-114.42-.3-17.63,9.41-30.61,24-34,21.56-5,41.2,1.39,46.71,18.23,4.28,13.07,5,27.67,5.25,41.63C492.29,641.39,491.84,677.12,491.84,712.85Z" transform="translate(1428.75 763.4)"/><path class="cls-4" d="M50.26,572.8c11.71-21.6,29.8-29.11,51.11-21,12.67,4.82,20,13.51,19.8,27.79-.26,18.86.09,37.73-.21,56.59-.3,18.43-8.58,31.78-21.85,36.27-17.44,5.9-31.14,2-44.09-12.79q-9.3-10.6-18.29-21.49C14,610.7-24.85,607.46-54.65,623.65c-40.74,22.14-62.67,57.55-67.76,102.94-3.35,29.87,2.5,57.84,22.14,82.3,33.54,41.76,112,54.28,150.45,6.3,8.14-10.15,11-25.45,13.61-38.89,3.87-19.67,16.88-30.45,39.51-29.5,20.63.87,34,13.75,34.68,33.33,1.66,50.45-27.47,95.82-80.57,116.56-62.93,24.59-125.73,22.19-184.06-15-42.61-27.14-64.46-68.66-68.91-117.67-5-55.26,6.16-107.26,39.85-153.59,48.56-66.81,140.27-81.1,203.34-38.2A7.24,7.24,0,0,0,50.26,572.8Z" transform="translate(1428.75 763.4)"/><path class="cls-4" d="M-778.49,756.8c-17.62-1.45-25.93-9.3-27-24.33-1.77-25.71,2.17-33.8,18.89-42,3.17-1.55,6.41-6.57,6.55-10.11.69-17.42.6-34.89.18-52.33-.09-3.84-1.63-8.6-4.22-11.27-11.66-12-15.59-25.37-9.13-41.22,6.05-14.85,20.34-17.56,32.84-17.91,47.44-1.33,94.94-1,142.41-.78a457.78,457.78,0,0,1,47.81,3c26.67,2.94,38.83,30,22.5,51.41-4.34,5.71-13.94,10.44-21.14,10.46-40,.1-80-1-120-2.56-13.46-.52-18.82,3.61-17.67,17.54a292.18,292.18,0,0,1,.19,41c-.72,12.13,4.32,15.38,15.74,15.15,26.88-.55,53.78,0,80.67.1,22.77.11,28,4.77,30.82,27.36,3,23.79-9.11,37.62-32.87,37.59-27.36,0-54.73.25-82.08-.28-9.31-.18-12.14,3-12.25,12.18-.22,17.83-1.22,35.7-2.93,53.46-1.21,12.48,1.93,17.77,15.75,17.12,37.61-1.78,75.28-2.45,112.93-3.25,22.5-.48,33.2,7.48,35.61,25.57,2.67,20.05-7.16,34-28.48,38.11a200.1,200.1,0,0,1-39.16,4q-69.23-.55-138.43-2.8c-13-.42-26.08-3-39-5.2-15.67-2.71-19.14-15.34-20.58-28.3-1.63-14.78,5.7-27.94,17.61-31.83,7.35-2.4,10.3-5.74,10.53-13.85C-781.79,801.4-779.95,779.9-778.49,756.8Z" transform="translate(1428.75 763.4)"/><path class="cls-4" d="M1784.75,757.33c-22.28-4.64-27.81-11.16-29.07-31.28-1.25-19.86,7-31.56,28.11-37.88,0-20.59.22-41.72-.23-62.83-.07-3.24-2.51-7.16-5-9.48-12-10.94-13.91-23.66-8.9-38.55s18-18.71,30.2-19.58c63.89-4.59,127.91-6,191.66,2.17,26.23,3.34,36.72,23.38,26.27,47.39-4.31,9.91-11,15.57-22.86,15.17-40.48-1.34-81-1.76-121.47-3.17-12.11-.42-17.24,3.22-16.37,16a373,373,0,0,1,.15,43.85c-.53,10.37,2.57,14.06,13.42,13.83,28.3-.61,56.63-.11,84.94.11,19,.14,26.29,7.52,26.65,26.63.09,4.72.16,9.44-.07,14.15-.76,16.07-8.78,24-25,24.08-28.79.16-57.59.44-86.36-.29-10.82-.27-13.55,3.46-13.59,13.79-.07,18.3-.22,36.88-3.38,54.81-2.42,13.67,3.5,14.22,13.32,14,40.49-1.1,81-2,121.48-3.07,13.28-.35,22.6,5.14,27.26,17.87,8.8,24.08-5.32,45-32.4,47.27-66.82,5.68-133.56,4-200.19-3-20.19-2.12-27.28-8.57-30.25-25.66a36.2,36.2,0,0,1,18.85-38.75c3.59-1.93,7.95-6.2,8.28-9.74C1782.26,802.8,1783.32,780.36,1784.75,757.33Z" transform="translate(1428.75 763.4)"/><path class="cls-4" d="M1460.69,687.56c0-20.17.15-40.85-.18-61.52,0-2.87-1.67-7-3.9-8.35-16.35-10.08-15-25.56-11.13-40.22,4.18-15.72,19.1-19.13,32.77-20.07,63.46-4.37,127-5.58,190.2,3,9.23,1.25,20.89,8.8,25.15,16.78a32.92,32.92,0,0,1-5.28,38.24C1684,620,1674.86,622,1667.94,622q-60-.47-120.06-2.71c-12.18-.44-17.38,3.29-16.24,16,1.47,16.36,1.28,32.9,3.2,49.2.37,3.13,7.14,7.76,11.06,7.86,28.29.78,56.62.54,84.93.7,20.65.12,27.93,7.21,28.14,28.11a97,97,0,0,1-2.19,19.48c-2.52,12.66-10.68,17.65-23.46,17.47-28.78-.43-57.58.18-86.35-.43-10-.21-12.54,3.33-12.91,13-.86,22.4-3.2,44.74-5.07,68.7,6.44.31,11.94.93,17.42.79,37.19-.91,74.37-2.13,111.56-2.94,22.5-.49,34,8.1,35.22,25.57,1.7,23.22-8.24,38.26-30.54,38.94-51.69,1.59-103.44,1.17-155.17,1-15.48-.06-30.94-2.14-46.42-3.16-17.69-1.17-28.74-8.69-31.18-21.41-4.12-21.57,1.44-34.17,18.12-42.89,3.07-1.6,6.63-5.38,7-8.5q3.51-30,5.38-60.25c.21-3.38-2.84-9.79-5-10.05-20.41-2.51-22.68-17.09-22.84-33C1432.35,702.29,1437.35,696,1460.69,687.56Z" transform="translate(1428.75 763.4)"/><path class="cls-4" d="M-1315.09,698.67c23.22,0,44-1.06,64.66.34a219,219,0,0,1,46.9,8.4c15.24,4.49,21.92,21,18.17,38.43-2.79,13-13.79,21.12-29.26,20.73-29.18-.75-58.36-1.61-87.51-3.12-10.78-.56-13.29,3.4-13.6,13.73-1,34.29-3.23,68.55-5.21,102.8a30,30,0,0,1-28.44,28.13c-8,.35-16.31.74-23.88-1.23-18.22-4.72-23.31-20.79-20.46-46.38,3.26-29.32,3.51-59,5.1-89-3.42-.91-5.55-1.86-7.72-2-20.13-1.09-27.87-7.51-29.44-24.64-2.09-22.73,4.18-32.67,24.14-38,7-1.88,13.38-3.17,12.63-13.29-1.53-20.63-2.13-41.33-2.78-62-.21-7-1.72-11.31-10-12.22-20.16-2.2-26.4-9.76-26.68-30.27-.28-19.75,7-28.79,25.92-32.27a24,24,0,0,0,2.7-.83c5.77-33,27.51-32.68,54.55-28.54,6.85,1,15.43,8.86,18,15.56,4.07,10.57,10.39,11,19.4,11.32,39,1.48,78,3,116.91,5.72,22.62,1.6,33.67,16.39,31.39,38.43-1.87,18-15.48,27.4-33.48,26.21-38.47-2.55-77-3.89-115.57-5-3-.09-9,5.51-9,8.42C-1317.44,651-1316.13,673.92-1315.09,698.67Z" transform="translate(1428.75 763.4)"/><path class="cls-4" d="M839.37,555.79c3.24-20.08,11.82-28.55,29.25-29.93,28.72-2.27,39.66,3.9,47.75,28.29,5,0,10.51-.23,16,0,38.5,1.83,77,3.1,115.46,5.89,22.89,1.66,33.79,17.94,30.46,41.83-2.45,17.55-16.15,23.23-39,21.39-38.83-3.11-77.86-3.74-119.22-5.52.9,13.74,1.89,24.67,2.27,35.63.38,11.31.59,22.66.1,34-.38,8.62,2.81,11.32,11.42,11.44,25.86.36,51.72,1.5,77.56,2.66a80.66,80.66,0,0,1,16.61,2.91c24.89,6.49,34.78,34.69,18.13,54.31-4.08,4.81-13.1,7.62-19.83,7.59-30.11-.13-60.23-1.31-90.31-2.8-10.61-.53-13.64,3.06-13.72,13.6-.26,31-1.6,62.09-2.75,93.12-1.21,32.59-31.32,49.87-60.21,34.09-10.94-6-15.69-15.26-14.54-29.23,2.83-34.51,3.55-69.18,5.09-103.37-31.83-6.11-38-12.29-37.76-35.62.16-16.17,5.09-23.36,23.67-28.59,10.81-3,14.08-8.13,13.22-18.84-1.56-19.66-1.58-39.46-3.3-59.11-.31-3.54-5.27-8.82-8.85-9.56-19.51-4.06-25.85-10.26-27.33-29.31-1.31-16.89,6.78-28.28,23.77-33.43C835.1,556.68,836.92,556.36,839.37,555.79Z" transform="translate(1428.75 763.4)"/><path class="cls-5" d="M308.22-355.68c-21.35,26.73-39.28,49.78-58.05,72.11-2.93,3.5-9.7,5.3-14.69,5.31q-222.27.42-444.53-.09c-4.24,0-10.18-3.86-12.38-7.63-7.35-12.6-13.72-25.8-19.79-39.08-8.85-19.36,1.33-35.48,22.59-36,16-.36,32.08-.17,48.13-.05,15,.12,29.62.54,43.42-8.26,10.83-6.9,22.54-2.86,33.75,2.42,6.5,3.07,14,5.48,21.1,5.57q61.58.76,123.16,0a44,44,0,0,0,19.8-5.17c14.21-7.78,27.23-7.06,41.75-.18,8.4,4,18.71,4.32,28.26,5.18,2.25.2,6-3.69,7.13-6.47,2.25-5.63,3.2-11.79,4.64-17.74,5.22-21.41,7-22.82,28.41-22.83,23.08,0,23.07,0,28.08,22.14.84,3.68,2.27,7.28,2.6,11,1,10.83,5.84,15.09,17.36,14.39,17.86-1.08,35.86-.75,53.77-.05C290.24-360.75,297.66-358,308.22-355.68Z" transform="translate(1428.75 763.4)"/><path class="cls-4" d="M-409.07,624c-17.35,1.12-32.28,2.45-47.23,2.9-9.31.29-19,.75-27.89-1.52-16.18-4.16-22.82-17.63-21-38.2,1.17-13,10.33-22.59,25.4-24.25,22.86-2.53,45.85-5.46,68.79-5.53,47.11-.14,94.24,1.16,141.34,2.65,13,.41,25.78,4.42,30.11,19.07,4.16,14,4.93,28.52-8,38.6-5.46,4.24-13.55,6.76-20.57,7-21.54.89-43.15.32-65.95.32-1.15,11.19-3.37,24.12-3.64,37.09-1.38,65.5-2.15,131-3.39,196.52a321.91,321.91,0,0,1-2.77,35.09c-.57,4.42-2.35,10-5.56,12.56-15.75,12.65-33.92,8.82-51.16,4.63-14.33-3.49-17.13-15.61-17-29,.36-37.75-.68-75.54.69-113.24,1.54-42.25,5.16-84.41,7.77-126.62C-408.8,637.07-409.07,632-409.07,624Z" transform="translate(1428.75 763.4)"/><path class="cls-4" d="M1243.67,912.11c-14.9-1.27-29.94-2.08-44.84-3.92-49.57-6.12-62.32-27.72-66.47-72.56-7.11-76.85,1.28-152.92,13.56-228.69,1.35-8.34,1.95-16.81,3.52-25.1,2.48-13.08,9.83-23.25,23-26,14.11-3,29-5.62,41.78,5.26,12,10.25,9.83,24.16,8.08,36.95-5.68,41.36-14.35,82.4-18.1,123.9-3.12,34.47-1.51,69.42-.77,104.14.3,13.95,12.49,23.41,29.35,22.15,27.1-2,54-6.21,81-9.53,11.18-1.38,22.3-3.64,33.51-4.15,15.65-.72,26.38,8.28,30.25,23.74,3.46,13.8-2.13,29.32-16.11,33.87-21.29,6.93-43.45,11.68-65.56,15.5C1278.82,910.61,1261.27,910.72,1243.67,912.11Z" transform="translate(1428.75 763.4)"/><path class="cls-4" d="M-997.52,914.77c-24.55-4.78-48.74-7.92-72-14.51-18.58-5.27-28.62-21.33-32.92-39.51a228.63,228.63,0,0,1-5.8-43.12c-3.14-79.24,4.83-157.63,19.32-235.46,4.17-22.38,23.56-33.21,50.21-27.76,18.2,3.71,25.48,18.5,22.11,40.45-10.83,70.49-24,140.72-21.27,212.67,1.4,36.54,12.59,44.24,49.41,40,29.33-3.35,58.38-9.06,87.67-12.84,27.62-3.56,40.8,8.85,38.77,35.74-1.18,15.51-12.29,23.82-25.58,26.34C-923.86,903.69-960.5,908.85-997.52,914.77Z" transform="translate(1428.75 763.4)"/><path class="cls-6" d="M1123.94,1127.11c0-34,.4-67.92-.22-101.87-.21-11.89,4-15.93,15.62-15.25,22.05,1.29,44.62-1,66.12,2.89,50.48,9.13,67.87,69.75,36.88,104.52-2.47,2.77-2.65,10.89-.41,14,17.39,24.26,20.07,49.54,5.58,75.48-14.24,25.48-36.73,38.23-66.21,38.1-14.15-.06-28.35-.69-42.44.2-11.54.74-15.57-2.73-15.3-14.82.79-34.41.28-68.85.28-103.27Zm42.09,45.44c0,5.64-.63,11.37.2,16.89.68,4.48,2.53,12.09,4.87,12.5,25.11,4.37,46.17-4,43.2-33.31-1.64-16.12-18-26.66-38.12-25.32-18.61,1.24-6.62,15.79-10,23.64C1165.46,1168.54,1166.05,1170.67,1166,1172.55Zm0-95.72c0,28.21,0,28.21,25.44,26.64,15.24-.93,26.52-13.27,25.59-28-1.09-17.45-14.26-25.53-38.58-25.81-20.25-.24-9.87,14.51-12.4,22.94C1165.74,1073.91,1166.07,1075.42,1166.07,1076.83Z" transform="translate(1428.75 763.4)"/><path class="cls-6" d="M-1388.93,1126.46c0,35.88-.71,69.25.34,102.57.43,13.64-4.31,17.83-16.82,16a26.15,26.15,0,0,0-7.07,0c-12.3,1.64-16.36-3.4-16.27-15.9.5-67.88.09-135.77.44-203.65,0-5.06,4.13-14.59,5.47-14.44,10.57,1.22,24.36-8,31.09,7.75,12.41,29,24.65,58,37.07,87,4.31,10,8.91,20,13.38,30l3.79-1c-1-11.39-2.68-22.76-2.88-34.17-.48-26.39,0-52.8-.45-79.19-.16-8.67,2.89-11.25,11.44-11.43,28.14-.6,28.14-.93,28.14,26.56,0,64.11.18,128.23-.24,192.34,0,5.34-4.1,15.26-6.1,15.21-9.81-.24-22.24,6.82-28.79-7.14q-19.2-40.92-38.56-81.76C-1379.29,1146-1383.83,1136.93-1388.93,1126.46Z" transform="translate(1428.75 763.4)"/><path class="cls-6" d="M53,1131.86c0,32.42-.51,64.85.27,97.25.28,12-2.39,18.08-15.43,16a36,36,0,0,0-9.89,0c-11.17,1.27-14.76-3.6-14.7-14.63.35-68.37.12-136.75.18-205.13,0-6.31-1.67-15.46,8.17-14.62s22.59-7.49,29.21,8.47c16.39,39.53,33.72,78.67,52.49,118,0-25.31.22-50.61-.09-75.92-.17-13.13-1.21-26.25-2-39.37-.5-8.43,3.23-11.89,11.7-11.78,34.4.43,27.45-3.14,27.63,26q.6,96.2-.09,192.39c0,5.46-3.84,15.6-5.77,15.56-10.22-.16-22.9,6.86-29.7-8-14.07-30.85-28.72-61.43-43.18-92.1-2-4.21-4.23-8.29-6.35-12.43Z" transform="translate(1428.75 763.4)"/><path class="cls-7" d="M330-372.4h55c.41,8.35.8,16.18,1.23,25l17.42,2.19c4.51,51.67,9,103.07,13.58,155.5H263.92c0-23-.27-45.88.28-68.77.08-3.65,3.44-7.54,6-10.76,15.75-20,31.81-39.69,47.53-59.67C327.34-341.09,342-351.67,330-372.4Z" transform="translate(1428.75 763.4)"/><path class="cls-4" d="M491.22,1127.24c0,28.28,0,57.14,0,86,0,1.4.36,2.8.48,4.2,2.28,25.56-9.12,34.91-33.79,27-2.63-.84-5.43-6.15-5.45-9.4-.32-71.66-.2-143.33-.37-215,0-7.24,2.6-9.71,9.89-10.07,21.72-1.08,22-.78,30.21,18.88,14.13,33.86,28.8,67.5,43.33,101.19.45,1,1.86,1.65,4.59,4v-78.77c0-11.32.23-22.64-.14-34-.24-7.36,1.58-10.95,10.07-11.34,27.07-1.25,27.05-1.61,27.06,25.41,0,64.12.18,128.24-.19,192.35,0,5.86,5,16.25-6.48,16.78-10.21.46-22.05,5.32-28.75-9.92-15.51-35.35-32.62-70-49.11-104.91A25.23,25.23,0,0,0,491.22,1127.24Z" transform="translate(1428.75 763.4)"/><path class="cls-4" d="M-252.92,1127.09c0-34.91.23-69.82-.16-104.72-.11-9,2.29-12.85,11.89-12.35,23.94,1.25,48.49-1.2,71.76,3.25,49,9.36,69,64.43,39,104.28-5.88,7.82-4,11.88-.56,19.46,5.31,11.66,9.56,24.53,10.69,37.2,1.75,19.66.2,39.59.67,59.39.21,8.52-2.58,11.71-11.32,11.52-35.36-.8-27.92,4-28.67-28-.3-12.73.19-25.48-.1-38.21-.59-26-21.37-42.14-46.07-35-3.39,1-6.89,8.23-7,12.67-.68,25-.83,50-.13,75,.3,10.7-3.21,13.88-13.72,13.54-31.35-1-26,3.7-26.27-26.1-.3-30.66-.07-61.33-.07-92Zm60-23.57c3.29,0,6.6.13,9.88,0,21.27-1,32.44-20.46,22.49-39.09-6.87-12.87-26.42-19.57-45.22-14.07-13.3,3.9-5.33,15.89-7.25,24.12-.62,2.68-.11,5.63-.09,8.45C-213,1105.75-215.5,1103.36-193,1103.52Z" transform="translate(1428.75 763.4)"/><path class="cls-4" d="M-1040.31,1127c0,18.39.12,36.78,0,55.17-.23,36.19-28.76,65.58-63.68,65.75-35.81.17-66.25-29-66.73-64.84-.49-36.77-.38-73.56,0-110.33.38-36.35,30.16-65.64,65.84-65.49,36.19.15,64.38,28.93,64.54,66C-1040.26,1091.15-1040.33,1109.07-1040.31,1127Zm-39.8,1.83c0-16.94.06-33.88,0-50.82-.1-18.83-10-30.87-25.21-31-15-.1-25.49,12.29-25.59,31-.17,32-.09,64,0,96a48.37,48.37,0,0,0,1.15,11.15c3.09,12.65,15.41,23.51,25.41,22.76,13.19-1,24-13.45,24.23-28.29C-1079.95,1162.69-1080.1,1145.75-1080.11,1128.81Z" transform="translate(1428.75 763.4)"/><path class="cls-4" d="M804,1088c-4.1-10.92-6.91-21.77-12.11-31.31-4.59-8.4-14.36-13.74-22.83-8.45-7.91,5-18,14.28-18.37,22.11-1.88,38.12-1.13,76.38-.66,114.59.15,12,9,18.4,19.48,21.65,11.13,3.46,20.56-2.28,24.93-11.22,4-8.23,5.71-19.09,4-27.9-.69-3.44-13.6-4.44-23.19-7.21,0-8.78-.66-19,.41-29.15.31-2.87,5.52-7.29,8.66-7.45,15.54-.77,31.15-.76,46.69,0,3.23.15,9,4.65,8.95,7.1-.23,22.53.78,45.44-3,67.48-4.94,28.89-31.81,49-60.75,49.7-28.7.75-55.42-18.48-63.82-46.37a59.1,59.1,0,0,1-2.29-16.64q-.3-57.32-.07-114.63c.17-31.41,24.74-58.69,56.12-62.84,31-4.09,64,16,70.82,46C846.18,1094.33,843,1091.7,804,1088Z" transform="translate(1428.75 763.4)"/><path class="cls-4" d="M1922.26,1088c12-17.81,26.41-34,34.68-52.85,11.58-26.38,30.76-28,56.22-23.49-4.1,7.56-7.58,14.88-11.85,21.72-12.46,20-24.88,40-38.06,59.47-5.62,8.3-6.31,14.85-1.63,24.25,19.48,39.25,37.9,79,56.68,118.62,1,2.06,1.63,4.28,3.42,9.09-14.29,0-27.19.65-40-.46-3.25-.28-7-5.65-8.84-9.5-12.27-26-24.07-52.17-36-78.28-1.48-3.23-3.14-6.38-4.72-9.56l-4.35-.62c-2.71,8.86-7.23,17.62-7.75,26.6-1.18,20.22-.7,40.56-.22,60.83.2,8.76-3.07,11.47-11.56,11.28-34.67-.74-28.14,3.74-28.3-26.85-.34-64.14.26-128.3-.3-192.45-.11-12.27,2.89-16.52,15.68-15.94,28.24,1.29,24-3.1,24.36,23.92.2,17,.1,34,.22,50.93C1920,1085.4,1920.86,1086.07,1922.26,1088Z" transform="translate(1428.75 763.4)"/><path class="cls-4" d="M-386,1106c0,24.52-.87,49.08.2,73.55,1.72,39.5-32.74,68.51-64.32,68.42-37.91-.11-66.41-29.58-66.46-69.32-.07-50.92.43-101.85-.18-152.76-.15-12.19,2.75-16.58,15.63-16,28.29,1.3,24.23-3.09,24.36,23.86.21,45.27.05,90.53.07,135.8,0,4.23-.27,8.55.4,12.7,2.38,14.89,13.76,26.13,25.57,25.71,13.67-.5,24.63-13,24.73-29.46.25-40.55.09-81.1.1-121.65,0-12.26.26-24.52-.08-36.77-.2-7.26,2.61-9.65,9.89-10.06,30-1.71,30-2,30,28.08q0,33.95,0,67.89Z" transform="translate(1428.75 763.4)"/><path class="cls-4" d="M1499.83,1244.93c-11.08,0-21.36.54-31.51-.36-2.74-.24-7.14-4.75-7.28-7.48-.82-15.35-8.7-20.2-23-17.79a41.44,41.44,0,0,1-11.29,0c-11.46-1.27-17.94,2-17.52,15.21.11,3.36-5.08,9.49-8.39,9.89-10.54,1.29-21.34.48-33.81.48,6.42-35.14,12.54-68.23,18.5-101.34,7.23-40.13,14.56-80.25,21.31-120.46,1.5-8.89,4.35-13.73,14.24-13.09a264.92,264.92,0,0,0,29.69,0c8.54-.42,11.46,3.86,12.77,11.5,12,69.76,24.18,139.48,36.17,209.23C1500.43,1234.78,1499.83,1239,1499.83,1244.93ZM1437,1085.45l-3.31-.07c-5.06,31.77-10.12,63.53-15.31,96.13h32.16C1445.84,1148.51,1441.39,1117,1437,1085.45Z" transform="translate(1428.75 763.4)"/><path class="cls-6" d="M1616.76,1126.42c0-17.44-.42-34.9.08-52.32,1.43-50.65,52.87-82.53,96.09-59.78,22.94,12.07,38.57,41.17,36.76,67.08-.55,7.93-3.88,11-11.43,10.65-4.24-.19-8.56-.53-12.72.07-14.29,2.05-19.21-3.65-18.47-18.08.79-15.31-11.5-27.44-24.67-27-13.62.49-23.23,11-23.35,26.77q-.4,53.73,0,107.47c.11,14.74,11.18,26.41,24,26.46,12.66,0,23.27-11.81,24.45-26.35.49-6.06,1.89-16.87,4-17.18,11.49-1.61,23.36-.79,35.07-.15,1.1.06,2.53,4.59,2.84,7.16,5.8,48.51-41.27,87.82-87.66,73.32-24.21-7.58-44.61-36.47-45.07-64.42-.29-17.91,0-35.82,0-53.73Z" transform="translate(1428.75 763.4)"/><path class="cls-4" d="M-720.46,1148.73c0-27.32-.4-54.66.21-82,.23-10.6-2.17-16.46-14-14.47a16.7,16.7,0,0,1-2.83,0c-35.67.13-28.08-2.28-28.24-35.18,0-2.3,5.18-6.6,8-6.64,37.7-.45,75.4-.31,113.1-.27,1.86,0,5.28.27,5.34.75,1.36,10.85,3.18,21.78,2.87,32.63-.09,3-6.71,5.88-10.54,8.51-1,.67-2.76.15-4.17.2-30,1.14-30,1.14-30,30.73,0,49-.32,98,.27,147,.13,11.53-2.84,15.69-14.88,15.2-29.7-1.2-24.8,3.65-25.13-25.83C-720.67,1195.84-720.46,1172.28-720.46,1148.73Z" transform="translate(1428.75 763.4)"/><path class="cls-8" d="M-29.91-254.7c.3,8,.85,15.94.86,23.91.05,129.78-.13,259.56.3,389.34.05,12.74-2.88,17.23-16.37,16.72-28.76-1.08-57.59-.65-86.38-.14-9.61.17-13.32-2.46-13.3-12.64q.39-201.75.18-403.49c0-4.59.31-9.17.48-13.75Zm-8.76,385.07V-45.75l-16.76-5,.39-4.07L-38.58-58V-243.17h-96.78V130.37h96.69Zm.42,9.17c-31.23,0-61.28,0-91.33.05-1.76,0-3.51.71-5.62,1.16v25.67h96.95Z" transform="translate(1428.75 763.4)"/><path class="cls-4" d="M663.2,752.24c-16.48,0-33,.16-49.45,0-21.08-.26-31.14-9.93-31.2-29.55s10.11-29.39,30.83-29.8c36.65-.71,73.29-1.64,109.94-2.54,16.19-.4,29.18,10.24,31.73,26.13,2.26,14-7.65,30.41-23,32.48-22.72,3.07-45.82,3.28-68.77,4.71Z" transform="translate(1428.75 763.4)"/><path class="cls-4" d="M316.41,1127.57c0,34.38-.38,68.76.22,103.13.19,10.85-2.54,15-14.12,14.53-30.87-1.18-25.78,3.61-25.9-26.48-.25-64,.27-128.1-.29-192.14-.11-12.55,2.69-17.44,16.24-16.75,27.49,1.4,23.52-3.28,23.72,24.46.23,31.08.05,62.17.05,93.25Z" transform="translate(1428.75 763.4)"/><path class="cls-7" d="M-482.79,184l-45.39,4.62c0-54.16,0-111.13,0-168.11,0-9.74,4.95-14.41,14.68-15.23,26.38-2.22,30.72,1.58,30.72,27.92q0,68.61,0,137.24Z" transform="translate(1428.75 763.4)"/><path class="cls-1" d="M1121.32,188l-45.44-3.56V159.23c0-44.82-.1-89.64,0-134.46,0-16.48,4-19.55,23.52-19.49,18.41.06,21.81,2.89,21.84,19.43C1121.38,79.88,1121.32,135.05,1121.32,188Z" transform="translate(1428.75 763.4)"/><path class="cls-9" d="M-20.88,186c.3-4.51.86-9,.86-13.54q.07-108,.12-216c0-4.13,1.27-8.27,1.95-12.4l4.52-.11c.72,3.59,2,7.18,2.06,10.77q.16,109.43,0,218.86c0,4.13-1.43,8.26-2.19,12.39Z" transform="translate(1428.75 763.4)"/><path class="cls-10" d="M268.2-100.86a240.55,240.55,0,0,1-.06,71.73l-3.73.05V-100.5Z" transform="translate(1428.75 763.4)"/><path class="cls-8" d="M-439.81-165.8l-4.89-10.93Z" transform="translate(1428.75 763.4)"/><path class="cls-9" d="M-157,183l3.34,3h-8.81l3.32-3,1.08-.18Z" transform="translate(1428.75 763.4)"/><path class="cls-8" d="M-210-167.77l-3.37,2.1Z" transform="translate(1428.75 763.4)"/><path class="cls-11" d="M-517.92-101.91c9-9.6,307.45-10.11,318.71-1.46h-88.24V33.21c0,22.62.05,45.25,0,67.87-.06,21.51.3,43.05-.27,64.53l-6.72-.21V-101.91Z" transform="translate(1428.75 763.4)"/><path class="cls-12" d="M7.72,132.13H202.38c.26,1.43.52,2.86.79,4.28-3.41,1.16-6.81,3.32-10.22,3.33q-87.52.31-175,0c-3.61,0-7.22-1.7-10.83-2.61Z" transform="translate(1428.75 763.4)"/><path class="cls-8" d="M202.1-49.64H5.43C15.87-58.5,190.91-59.33,202.1-49.64Z" transform="translate(1428.75 763.4)"/><path class="cls-13" d="M-157,183l-1.07-.2-1.08.18c-1-4.41-2.76-8.82-2.77-13.23q-.27-106.09-.07-212.18c0-4.32.91-8.63,1.4-12.95l4.11-.3c.85,3,2.42,6.09,2.43,9.13q.2,110.34,0,220.67C-154.12,177.09-156,180.05-157,183Z" transform="translate(1428.75 763.4)"/><path class="cls-9" d="M7.82,170.71c8.9-5.81,182.68-6.42,194.14-.69C194.17,176.7,18.41,177.32,7.82,170.71Z" transform="translate(1428.75 763.4)"/><path class="cls-7" d="M-38.67,130.37h-96.69V-243.17h96.78V-58L-55-54.79l-.39,4.07,16.76,5ZM-131.12-168c0,12.23-.26,24.47.06,36.69.5,19.7,12.52,32.46,32.2,34.22a175.76,175.76,0,0,0,19.75.29c23.2-.52,35.9-12.5,36.48-35.7.59-24,.49-48,0-72-.42-20.87-12.56-32.95-33.45-34.26-6.57-.41-13.18-.28-19.76-.11C-117.21-238.28-130-226-131-204.71-131.53-192.5-131.09-180.26-131.12-168Z" transform="translate(1428.75 763.4)"/><path class="cls-14" d="M-38.25,139.54v26.88H-135.2V140.75c2.11-.45,3.86-1.16,5.62-1.16C-99.53,139.52-69.48,139.54-38.25,139.54Z" transform="translate(1428.75 763.4)"/></svg>